<svg width="114" height="114" viewBox="0 0 114 114" fill="none" xmlns="http://www.w3.org/2000/svg">
<path d="M62.0078 11C79.0302 11 92.8296 24.676 92.8296 41.5463V78.6847C93.1966 80.6237 94.9134 82.0909 96.9764 82.0909H111.09C112.697 82.0909 114 83.3821 114 84.9749V100.116C114 101.709 112.697 103 111.09 103H95.6669C94.0597 103 92.7569 101.709 92.7569 100.116V86.2727C92.7569 84.158 91.1729 82.4102 89.1166 82.1303H83.5758C77.1371 82.1303 71.9174 87.3032 71.9174 93.6844V100.116C71.9174 101.709 70.6145 103 69.0074 103H8.73006C3.90858 103 1.97285e-07 99.1263 0 94.348V72.7425H20.4196C21.1367 78.442 26.0424 82.8525 31.9876 82.8525H60.9878C67.4265 82.8524 72.646 77.6794 72.646 71.2983V42.5573C72.646 36.1761 67.4265 31.0032 60.9878 31.0032H31.9876C25.559 31.0032 20.3476 36.1761 20.3475 42.5573V46.1129C20.3475 48.5643 22.4719 49.9341 24.4223 49.9342H47.5569C49.1641 49.9342 50.467 51.2254 50.467 52.8182V65.7962C50.467 66.9908 49.4985 67.9592 48.3039 67.9592H23.1128C21.5056 67.9592 20.2028 66.668 20.2028 65.0752V54.1058C20.2027 52.1729 19.7881 50.0675 16.8054 50.0675H2.91002C1.30287 50.0675 1.20998e-05 48.7763 0 47.1835V34.6093C0 33.0165 1.30286 31.7253 2.91002 31.7253H9.2538C15.6925 31.7253 20.9122 26.5523 20.9122 20.1711V11H62.0078Z" fill="#18181B"/>
</svg>
