<svg width="78" height="80" viewBox="0 0 78 80" fill="none" xmlns="http://www.w3.org/2000/svg">
<path d="M24.0705 39.8779V51.5536L18.1248 59.8168L24.0705 68.08V79.7558H14.0284V71.4911L5.62827 59.8168L14.0284 48.1411V39.8779H24.0705Z" fill="#7465FB"/>
<path d="M39.3129 79.7558H29.2708L38.9542 39.8779H48.9963L39.3129 79.7558Z" fill="#7465FB"/>
<path d="M64.2387 48.1411L72.6388 59.8168L64.2387 71.4911V79.7558H54.1966V68.08L60.1423 59.8168L54.1966 51.5536V39.8779H64.2387V48.1411Z" fill="#7465FB"/>
<path d="M39.1336 0C44.22 6.86713e-07 49.2564 1.03217 53.9557 3.03613C58.6551 5.04018 62.9255 7.97709 66.5223 11.6801C70.119 15.3831 72.9716 19.7797 74.9182 24.6179C76.8647 29.456 77.8672 34.6412 77.8672 39.8779H64.3101C64.3101 36.474 63.6588 33.1037 62.3936 29.9589C61.1284 26.8141 59.2748 23.9555 56.9369 21.5486C54.599 19.1416 51.8225 17.2333 48.7679 15.9307C45.7134 14.6281 42.4397 13.9575 39.1336 13.9575C35.8274 13.9575 32.5537 14.6281 29.4992 15.9307C26.4446 17.2333 23.6681 19.1416 21.3302 21.5486C18.9923 23.9555 17.1387 26.8141 15.8735 29.9589C14.6083 33.1037 13.957 36.474 13.957 39.8779H0.399902C0.399903 34.6412 1.40245 29.456 3.34892 24.6179C5.29546 19.7797 8.1481 15.3831 11.7449 11.6801C15.3416 7.97709 19.612 5.04018 24.3114 3.03613C29.0107 1.03217 34.0471 1.4096e-07 39.1336 0Z" fill="#7465FB"/>
</svg>
